<svg width="23" height="25" viewBox="0 0 23 25" fill="none" xmlns="http://www.w3.org/2000/svg">
<path d="M11.5005 24.5863C13.0802 24.5863 15.7108 24.5287 17.9483 24.2039C19.0661 24.0417 20.0932 23.8117 20.8433 23.4852C21.5844 23.1626 22.1 22.725 22.1 22.1262C22.1 17.1379 19.5262 12.9186 15.5815 11.3089C16.425 10.5129 17.0219 9.48637 17.2982 8.35338C17.5873 7.16819 17.5119 5.92241 17.082 4.78139C16.6521 3.64036 15.8881 2.65795 14.8911 1.96466C13.8941 1.27136 12.7114 0.900008 11.5 0.9C10.2886 0.899992 9.10594 1.27133 8.10895 1.96461C7.11198 2.65789 6.34791 3.64029 5.91802 4.78132C5.48813 5.92234 5.41272 7.16811 5.70177 8.35331C5.97809 9.4863 6.575 10.5128 7.41842 11.3089C3.4739 12.9186 0.9 17.1379 0.9 22.1262C0.9 22.6193 1.21735 23.0159 1.81361 23.3341C2.40888 23.6517 3.30314 23.904 4.50863 24.1059L4.5105 24.1062C6.82458 24.449 9.16166 24.6095 11.5005 24.5863ZM11.5005 24.5863C11.5003 24.5863 11.5002 24.5863 11.5 24.5863V24.4863M11.5005 24.5863C11.5007 24.5863 11.5008 24.5863 11.501 24.5863L11.5 24.4863M11.5 24.4863C9.16623 24.5095 6.83422 24.3493 4.52515 24.0073L15.5005 11.384C19.4251 12.9623 22 17.1523 22 22.1262C22 24.2562 14.6571 24.4863 11.5 24.4863ZM6.66099 6.92218C6.66102 5.95727 6.94492 5.01409 7.47672 4.21191C8.00853 3.40971 8.76433 2.78459 9.64845 2.41548C10.5326 2.04638 11.5054 1.94982 12.4439 2.13797C13.3824 2.32613 14.2446 2.79059 14.9214 3.47273C15.5982 4.15489 16.0592 5.0241 16.246 5.97049C16.4328 6.91689 16.3369 7.89785 15.9705 8.78929C15.6042 9.68072 14.9839 10.4425 14.1881 10.9784C13.3924 11.5143 12.457 11.8003 11.5001 11.8003C10.2174 11.7988 8.9875 11.2846 8.08025 10.3702C7.17297 9.45574 6.66247 8.21574 6.66099 6.92218ZM2.03179 22.116C2.03546 17.3051 4.63924 13.3282 8.51051 12.128C9.41826 12.6594 10.4496 12.9395 11.5 12.9395C12.5503 12.9395 13.5817 12.6594 14.4894 12.1281C18.3607 13.3282 20.9645 17.3051 20.9682 22.1157C20.9622 22.1358 20.9348 22.18 20.8457 22.2433C20.7538 22.3085 20.6144 22.3812 20.4229 22.4576C20.0405 22.6101 19.4656 22.7713 18.6855 22.9183C17.1262 23.2121 14.7591 23.4471 11.5 23.4471C8.24091 23.4471 5.87376 23.2121 4.3145 22.9183C3.53441 22.7713 2.95945 22.6101 2.57711 22.4577C2.38555 22.3813 2.24616 22.3087 2.15426 22.2434C2.06515 22.1802 2.03781 22.136 2.03179 22.116Z" fill="#AC7A65" stroke="#AC7A65" stroke-width="0.2"/>
</svg>
