<svg width="11" height="20" viewBox="0 0 11 20" fill="none" xmlns="http://www.w3.org/2000/svg">
<path d="M9.48454 19.118L9.48626 19.1198C9.5715 19.2052 9.68873 19.2541 9.8129 19.2497C9.93696 19.2454 10.0502 19.1884 10.1293 19.0979C10.208 19.008 10.2476 18.8917 10.244 18.7749C10.2404 18.6586 10.194 18.5451 10.11 18.4603C10.1096 18.4599 10.1093 18.4596 10.1089 18.4593L1.83402 10.0051L10.107 1.54645C10.1755 1.48118 10.221 1.39673 10.24 1.30619C10.2594 1.21321 10.2505 1.11583 10.2138 1.02772C10.1769 0.939465 10.1131 0.86297 10.0287 0.812308C9.94466 0.761935 9.84597 0.740717 9.74764 0.753754C9.64544 0.766274 9.55291 0.814452 9.48351 0.886793L0.885254 9.6722C0.841709 9.71575 0.807872 9.76739 0.784961 9.82346C0.761761 9.88023 0.75 9.94092 0.75 10.0019C0.75 10.0628 0.761756 10.1235 0.78496 10.1803L1.01638 10.0857L0.784961 10.1803C0.807867 10.2364 0.841691 10.288 0.885215 10.3315L9.48454 19.118Z" fill="#333333" stroke="#333333" stroke-width="0.5"/>
</svg>
