<svg width="22" height="27" viewBox="0 0 22 27" fill="none" xmlns="http://www.w3.org/2000/svg">
<path d="M21.0235 23.5881L21.0235 23.588L18.6607 7.84135C18.6607 7.84134 18.6607 7.84133 18.6607 7.84132C18.6141 7.52953 18.3473 7.29814 18.0328 7.29814H15.7636V5.7395C15.7636 3.09869 13.627 0.95 11 0.95C8.37297 0.95 6.23641 3.09869 6.23641 5.7395V7.29814H3.96722C3.65332 7.29814 3.38656 7.52894 3.33932 7.84126L3.33931 7.84132L0.976547 23.5886L0.976541 23.5887C0.880225 24.2341 1.04782 24.8497 1.45128 25.3201C1.85411 25.7909 2.43479 26.05 3.08312 26.05H18.9157C19.564 26.05 20.1452 25.791 20.5475 25.3201C20.9522 24.8498 21.1198 24.2341 21.0235 23.5881ZM19.5857 24.4879L19.6237 24.5204L19.5857 24.4879C19.4293 24.6705 19.1926 24.7735 18.9163 24.7735H3.08371C2.80742 24.7735 2.57073 24.6705 2.41429 24.4879C2.25778 24.3046 2.19125 24.0533 2.23293 23.7788L2.23295 23.7787L4.51411 8.57461H6.237V10.3241C5.51224 10.5869 4.98816 11.2785 4.98816 12.0978C4.98816 13.1414 5.83291 13.9912 6.87202 13.9912C7.91116 13.9912 8.75529 13.1414 8.75529 12.0978C8.75529 11.2779 8.23181 10.5869 7.50705 10.3241V8.57461H14.4942V10.3241C13.7694 10.5869 13.2459 11.2785 13.2459 12.0978C13.2459 13.1414 14.0907 13.9912 15.1292 13.9912C16.1677 13.9912 17.013 13.1414 17.013 12.0978C17.013 11.2779 16.4895 10.5869 15.7642 10.3241V8.57461H17.4871L19.7682 23.7786C19.7682 23.7786 19.7682 23.7786 19.7682 23.7786C19.8088 24.0539 19.7428 24.3047 19.5857 24.4879ZM7.50645 5.7395C7.50645 3.80225 9.07404 2.22587 11 2.22587C12.926 2.22587 14.4936 3.80166 14.4936 5.7395V7.29814H7.50645V5.7395ZM6.87143 11.4804C7.20887 11.4804 7.48465 11.7572 7.48465 12.0978C7.48465 12.4378 7.20895 12.7141 6.87143 12.7141C6.53333 12.7141 6.2582 12.4378 6.2582 12.0978C6.2582 11.7572 6.53342 11.4804 6.87143 11.4804ZM15.1286 11.4804C15.4666 11.4804 15.7424 11.7572 15.7424 12.0978C15.7424 12.4377 15.4667 12.7141 15.1286 12.7141C14.7911 12.7141 14.5154 12.4378 14.5154 12.0978C14.5154 11.7572 14.7911 11.4804 15.1286 11.4804Z" fill="#AC7A65" stroke="#AC7A65" stroke-width="0.1"/>
</svg>
