<svg width="43" height="48" viewBox="0 0 43 48" fill="none" xmlns="http://www.w3.org/2000/svg">
<path d="M7.27901 15.2036C7.76827 15.2036 8.16511 14.8144 8.16511 14.3344C8.16511 13.8545 7.76827 13.4652 7.27901 13.4652H4.98496C4.76207 13.4652 4.55006 13.5452 4.38154 13.6945L0.293552 17.3847C0.288116 17.3901 0.288116 17.3954 0.28268 17.4007C0.233754 17.4487 0.201137 17.5074 0.163084 17.5607C0.135904 17.598 0.103287 17.6354 0.0815421 17.678C0.0652337 17.7207 0.0597978 17.7634 0.0489255 17.8114C0.032617 17.8753 0.0108719 17.9447 0.00543576 18.014C0.00543576 18.0193 0 18.0247 0 18.03V47.1308C0 47.6107 0.39684 48 0.886094 48H42.1139C42.6032 48 43 47.6107 43 47.1308V18.0247C43 18.0193 42.9946 18.014 42.9946 18.0087C42.9946 17.9393 42.9728 17.8753 42.9565 17.8114C42.9456 17.7687 42.9456 17.7154 42.9239 17.678C42.9076 17.646 42.8804 17.6194 42.8587 17.5874C42.8206 17.5234 42.7826 17.4541 42.7228 17.4007C42.7173 17.3954 42.7173 17.3901 42.7119 17.3901L38.7 13.6998C38.5369 13.5505 38.3195 13.4652 38.0912 13.4652H36.1831C35.6938 13.4652 35.297 13.8545 35.297 14.3344C35.297 14.8144 35.6938 15.2036 36.1831 15.2036H37.7378L39.8525 17.1501H33.3291V9.44428C33.3563 7.1672 30.0022 0 22.2013 0C14.8027 0 9.89924 6.21264 9.89924 10.3242V17.1554H3.17472L5.33287 15.209H7.27901V15.2036ZM11.6714 10.3242C11.6714 7.30052 15.667 1.74381 22.2013 1.74381C29.0291 1.74381 31.5841 8.14309 31.5841 9.44962V17.1554H11.6714V10.3242ZM41.2387 18.8939V46.2509H1.78306V18.8939H41.2387Z" fill="#AC7A65"/>
<path d="M28.1684 13H14.8316C14.3724 13 14 13.4479 14 14C14 14.5521 14.3724 15 14.8316 15H28.1684C28.6276 15 29 14.5521 29 14C29 13.4479 28.6276 13 28.1684 13Z" fill="#AC7A65"/>
</svg>
