<svg width="27" height="24" viewBox="0 0 27 24" fill="none" xmlns="http://www.w3.org/2000/svg">
<path d="M24.3065 2.80643C23.0281 1.49365 21.3628 0.792146 19.5307 0.792146C17.6985 0.792146 16.0332 1.49365 14.7548 2.80643L13.5385 4.05546L12.2811 2.76428C11.0027 1.45151 9.33739 0.75 7.50522 0.75C5.67306 0.75 4.00778 1.45151 2.72937 2.76428C0.091175 5.47338 0.0889602 9.84332 2.73023 12.5125C2.73041 12.5127 2.7306 12.5128 2.73079 12.513L13.031 23.048C13.0865 23.105 13.1522 23.1582 13.2346 23.1958C13.3182 23.234 13.4058 23.25 13.4974 23.25C13.589 23.25 13.6766 23.234 13.7603 23.1958C13.8426 23.1582 13.9083 23.105 13.9638 23.048L24.264 12.513C24.2642 12.5128 24.2644 12.5126 24.2646 12.5124C26.9049 9.84429 26.9046 5.47439 24.3065 2.80643ZM23.3721 11.6165L13.5385 21.6731L3.70321 11.6149C1.58145 9.43606 1.58145 5.92409 3.70321 3.7453C4.72285 2.69826 6.09456 2.13506 7.50522 2.13506C8.91589 2.13506 10.2876 2.69826 11.3072 3.7453L13.031 5.51541C13.2933 5.78477 13.7015 5.78477 13.9638 5.51541L15.6876 3.7453C17.8058 1.57021 21.2145 1.57021 23.3327 3.7453C25.4543 5.92401 25.4547 9.43648 23.373 11.6155C23.3727 11.6159 23.3724 11.6162 23.3721 11.6165Z" fill="#AC7A65" stroke="#AC7A65" stroke-width="0.5"/>
</svg>
