<svg width="16" height="16" viewBox="0 0 16 16" fill="none" xmlns="http://www.w3.org/2000/svg">
<g clip-path="url(#clip0)">
<path d="M15.6406 6.32812H14.0168C13.8874 6.32812 13.7825 6.43306 13.7825 6.5625C13.7825 6.69194 13.8874 6.79688 14.0168 6.79688H15.5312V8C15.5312 8.46897 15.4878 8.93809 15.4021 9.39441C15.1466 10.7607 14.5318 11.981 13.6668 12.9669L11.699 11.5453C12.2499 10.9688 12.6664 10.2662 12.8997 9.50628C12.9215 9.43519 12.9083 9.35797 12.8641 9.29819C12.8199 9.23837 12.75 9.20312 12.6756 9.20312H8.23437V6.79688H13.0024C13.1318 6.79688 13.2368 6.69194 13.2368 6.5625C13.2368 6.43306 13.1318 6.32812 13.0024 6.32812H8.12499C7.92683 6.32812 7.76562 6.48934 7.76562 6.6875V9.3125C7.76562 9.51066 7.92683 9.67188 8.12499 9.67188H12.3472C11.6601 11.4697 9.9513 12.6562 7.99999 12.6562C6.97874 12.6562 6.0094 12.3319 5.19677 11.7182C5.09349 11.6402 4.94649 11.6607 4.86849 11.7639C4.79046 11.8673 4.81099 12.0142 4.91427 12.0922C5.80893 12.7679 6.87596 13.125 7.99999 13.125C9.11855 13.125 10.1814 12.771 11.0736 12.1013C11.1698 12.029 11.2632 11.9532 11.354 11.8744L13.3442 13.3121C11.9697 14.6934 10.0694 15.5312 7.99977 15.5312C7.98218 15.5312 7.96446 15.5312 7.94687 15.5311C5.10058 15.5114 2.62346 13.899 1.36005 11.5467L3.3598 10.1763C3.56283 10.6091 3.82683 11.0148 4.14758 11.38C4.1939 11.4328 4.25868 11.4598 4.3238 11.4598C4.37871 11.4598 4.43383 11.4406 4.47836 11.4015C4.57561 11.3161 4.58524 11.168 4.49983 11.0708C3.74665 10.213 3.33615 9.11097 3.3439 7.96769C3.36115 5.41803 5.4499 3.34375 7.99999 3.34375C9.20052 3.34375 10.3404 3.79947 11.2096 4.62691C11.3518 4.76222 11.572 4.75941 11.711 4.62044L13.5678 2.76362C13.6364 2.69503 13.6737 2.60384 13.6729 2.50684C13.6721 2.40944 13.6331 2.31844 13.5629 2.25053C12.0627 0.79925 10.0871 0 7.99999 0C6.78487 0 5.61774 0.265563 4.53105 0.78925C4.41446 0.845438 4.36549 0.985531 4.42168 1.10216C4.47787 1.21872 4.61787 1.26769 4.73458 1.21153C5.75727 0.718656 6.8559 0.46875 7.99999 0.46875C9.92793 0.46875 11.755 1.19331 13.1572 2.51134L11.4544 4.21419C10.5079 3.34972 9.28555 2.875 7.99999 2.875C6.63233 2.875 5.3483 3.40216 4.38437 4.35938C4.01287 4.72831 3.70521 5.14537 3.46649 5.59675L1.50636 4.18047C2.08736 3.19331 2.89586 2.33669 3.89027 1.68788C3.99868 1.61713 4.02921 1.47191 3.95849 1.36353C3.88777 1.25509 3.74255 1.22459 3.63415 1.29531C1.36455 2.77612 0.00598898 5.27581 2.0229e-05 7.98197C-0.00469852 10.1185 0.81627 12.1265 2.31165 13.636C3.80715 15.1456 5.8073 15.9851 7.94365 15.9998C7.96208 16 7.98027 16 7.99871 16C9.86796 16 11.6842 15.3437 13.1182 14.1486C14.5479 12.9572 15.5227 11.2994 15.8629 9.48078C15.9539 8.99613 16 8.49794 16 8V6.6875C16 6.48934 15.8388 6.32812 15.6406 6.32812ZM1.27961 4.59497L3.26352 6.02841C3.0133 6.63347 2.87971 7.28828 2.87511 7.96453C2.87099 8.57325 2.97493 9.17125 3.17686 9.73347L1.14958 11.1227C0.710614 10.1653 0.466302 9.10166 0.46877 7.98303C0.471395 6.78403 0.756208 5.62813 1.27961 4.59497Z" fill="#333333"/>
</g>
<defs>
<clipPath id="clip0">
<rect width="16" height="16" fill="white"/>
</clipPath>
</defs>
</svg>
