<svg width="20" height="18" viewBox="0 0 20 18" fill="none" xmlns="http://www.w3.org/2000/svg">
<path d="M1.46991 9.49881L2.19317 10.2135L10.0075 18L18.4808 9.54944L18.7224 9.25512C19.5582 8.23714 20 7.00474 20 5.69145C20 5.13158 19.9213 4.59604 19.7659 4.1007C19.0546 1.68654 16.7947 0.00744469 14.2663 0.00744469C14.083 0.00744469 13.9261 0.0158827 13.7871 0.0317654L13.6795 0.0411957C12.4587 0.15833 11.3309 0.659626 10.4174 1.48999L9.98854 1.88011L9.57711 1.47163C9.55071 1.44681 9.51086 1.41703 9.46254 1.37881L9.37936 1.3128C8.3418 0.451662 7.08109 0 5.72574 0C4.80574 0 3.89121 0.222853 3.07631 0.645233L2.95975 0.751944L2.87557 0.756411C1.09882 1.76992 0 3.64556 0 5.684C0 6.98936 0.435346 8.21728 1.25872 9.23675L1.46991 9.49881Z" fill="#614338"/>
</svg>
