<svg width="18" height="18" viewBox="0 0 18 18" fill="none" xmlns="http://www.w3.org/2000/svg">
<path d="M8.99998 0C4.03749 0 0 4.03749 0 8.99998C0 13.9625 4.03749 18 8.99998 18C13.9625 18 18 13.9625 18 8.99998C18 4.03749 13.9625 0 8.99998 0ZM8.99998 17.2174C4.46868 17.2174 0.782596 13.5313 0.782596 8.99998C0.782596 4.46868 4.46868 0.782596 8.99998 0.782596C13.5313 0.782596 17.2174 4.46868 17.2174 8.99998C17.2174 13.5313 13.5313 17.2174 8.99998 17.2174Z" fill="#333333" fill-opacity="0.5"/>
<path d="M9.00086 3.91302C7.49044 3.91302 6.26172 5.14171 6.26172 6.65217V7.43476C6.26172 7.65076 6.43703 7.82608 6.65303 7.82608C6.86903 7.82608 7.04435 7.65076 7.04435 7.43476V6.65217C7.04435 5.57371 7.92167 4.69562 9.00086 4.69562C10.0801 4.69562 10.9574 5.57371 10.9574 6.65213V7.24455C10.9574 7.76735 10.7539 8.25881 10.3837 8.629L9.41173 9.601C8.89444 10.1191 8.60954 10.8062 8.60954 11.538V12.1304C8.60954 12.3464 8.78486 12.5217 9.00086 12.5217C9.21686 12.5217 9.39218 12.3464 9.39218 12.1304V11.538C9.39218 11.0152 9.59567 10.5237 9.96581 10.1535L10.9378 9.18154C11.4551 8.66344 11.74 7.9763 11.74 7.24459V6.65217C11.74 5.14171 10.5113 3.91302 9.00086 3.91302Z" fill="#333333" fill-opacity="0.5"/>
<path d="M8.99939 13.3044C8.56739 13.3044 8.2168 13.6557 8.2168 14.087C8.2168 14.5182 8.56739 14.8696 8.99939 14.8696C9.43139 14.8696 9.78198 14.5182 9.78198 14.087C9.78202 13.6557 9.43139 13.3044 8.99939 13.3044Z" fill="#333333" fill-opacity="0.5"/>
</svg>
