<svg width="20" height="20" viewBox="0 0 20 20" fill="none" xmlns="http://www.w3.org/2000/svg">
<path d="M0 8.18261C0 12.6945 3.71376 16.3652 8.27852 16.3652C10.1544 16.3652 11.9646 15.7297 13.4254 14.5811L19.1055 20L20 19.0837L14.375 13.7174C15.7708 12.2149 16.557 10.243 16.557 8.18261C16.557 3.67073 12.8433 0 8.27852 0C3.71376 0 0 3.67073 0 8.18261ZM15.2691 8.18261C15.2691 10.179 14.3956 12.0774 12.8723 13.3911C11.6001 14.4882 9.96861 15.0925 8.27852 15.0925C4.42373 15.0925 1.28793 11.9931 1.28793 8.18293C1.28793 4.3728 4.42373 1.27333 8.27852 1.27333C12.1333 1.27333 15.2691 4.3728 15.2691 8.18261Z" fill="#AC7A65"/>
</svg>
