<svg width="16" height="16" viewBox="0 0 16 16" fill="none" xmlns="http://www.w3.org/2000/svg">
<path d="M0 6.54609C0 10.1556 2.97101 13.0922 6.62281 13.0922C8.12351 13.0922 9.57167 12.5837 10.7403 11.6649L15.2844 16L16 15.267L11.5 10.9739C12.6166 9.77191 13.2456 8.19439 13.2456 6.54609C13.2456 2.93659 10.2746 0 6.62281 0C2.97101 0 0 2.93659 0 6.54609ZM12.2153 6.54609C12.2153 8.14321 11.5164 9.66192 10.2978 10.7129C9.28008 11.5905 7.97489 12.074 6.62281 12.074C3.53898 12.074 1.03035 9.59445 1.03035 6.54635C1.03035 3.49824 3.53898 1.01867 6.62281 1.01867C9.70664 1.01867 12.2153 3.49824 12.2153 6.54609Z" fill="#333333"/>
</svg>
