<svg width="27" height="18" viewBox="0 0 27 18" fill="none" xmlns="http://www.w3.org/2000/svg">
<path d="M3.62183 0V1.10849H15.8157V7.87583H24.4422L25.868 9.64664V14.3771H23.6722C23.5425 13.6647 23.1587 13.0194 22.5882 12.5545C22.0177 12.0896 21.297 11.8348 20.5524 11.8348C19.8079 11.8348 19.0872 12.0896 18.5167 12.5545C17.9462 13.0194 17.5624 13.6647 17.4327 14.3771H11.7891C11.6594 13.6647 11.2756 13.0194 10.7051 12.5545C10.1346 12.0896 9.41388 11.8348 8.66936 11.8348C7.92483 11.8348 7.20409 12.0896 6.63361 12.5545C6.06312 13.0194 5.67933 13.6647 5.54958 14.3771H3.62183V15.4856H5.54103C5.6772 16.1922 6.06329 16.8303 6.63249 17.2895C7.2017 17.7487 7.91818 18 8.65795 18C9.39772 18 10.1142 17.7487 10.6834 17.2895C11.2526 16.8303 11.6387 16.1922 11.7749 15.4856H17.427C17.5631 16.1922 17.9492 16.8303 18.5184 17.2895C19.0876 17.7487 19.8041 18 20.5439 18C21.2837 18 22.0001 17.7487 22.5693 17.2895C23.1385 16.8303 23.5246 16.1922 23.6608 15.4856H27.0002V9.27807L25.2264 7.06109L22.4688 1.4161H16.9564V0.00277129L3.62183 0ZM8.65225 16.8934C8.24998 16.8934 7.85676 16.7774 7.52233 16.5602C7.1879 16.343 6.92729 16.0342 6.77348 15.673C6.61967 15.3118 6.57957 14.9144 6.65826 14.531C6.73694 14.1477 6.93087 13.7956 7.21552 13.5194C7.50016 13.2432 7.86272 13.0552 8.25733 12.9793C8.65193 12.9033 9.06084 12.9429 9.43232 13.0928C9.80381 13.2428 10.1212 13.4965 10.3442 13.8218C10.5673 14.1471 10.6861 14.5294 10.6855 14.9203C10.6848 15.4438 10.4702 15.9457 10.089 16.3157C9.70775 16.6856 9.19101 16.8934 8.65225 16.8934ZM20.541 16.8934C20.1388 16.8934 19.7455 16.7774 19.4111 16.5602C19.0767 16.343 18.8161 16.0342 18.6623 15.673C18.5085 15.3118 18.4684 14.9144 18.547 14.531C18.6257 14.1477 18.8197 13.7956 19.1043 13.5194C19.389 13.2432 19.7515 13.0552 20.1461 12.9793C20.5407 12.9033 20.9496 12.9429 21.3211 13.0928C21.6926 13.2428 22.01 13.4965 22.233 13.8218C22.4561 14.1471 22.5749 14.5294 22.5743 14.9203C22.5736 15.4434 22.3594 15.9448 21.9788 16.3147C21.5982 16.6846 21.0822 16.8927 20.5439 16.8934H20.541ZM21.7473 2.52459L23.8291 6.77011H16.9564V2.52459H21.7473Z" fill="#AC7A65"/>
<path d="M5.98852 10.1094H1.42578V11.2179H5.98852V10.1094Z" fill="#AC7A65"/>
<path d="M7.98479 6.78369H0V7.89218H7.98479V6.78369Z" fill="#AC7A65"/>
<path d="M9.41058 3.4585H1.42578V4.56699H9.41058V3.4585Z" fill="#AC7A65"/>
</svg>
