<svg width="30" height="30" viewBox="0 0 30 30" fill="none" xmlns="http://www.w3.org/2000/svg">
<path d="M29.4827 24.8276H0.517265C0.231621 24.8276 0 24.596 0 24.3103V5.68969C0 5.40404 0.231621 5.17242 0.517265 5.17242H29.4827C29.7684 5.17242 30 5.40404 30 5.68969V24.3103C29.9999 24.596 29.7683 24.8276 29.4827 24.8276Z" fill="#F5F5F5"/>
<path d="M29.9999 6.68443H0V5.68969C0 5.40404 0.231621 5.17242 0.517265 5.17242H29.4827C29.7684 5.17242 30 5.40404 30 5.68969L29.9999 6.68443Z" fill="#FF4B55"/>
<path d="M29.9999 11.2202H0V12.7321H29.9999V11.2202Z" fill="#FF4B55"/>
<path d="M29.9999 8.19614H0V9.70809H29.9999V8.19614Z" fill="#FF4B55"/>
<path d="M29.9999 15.756H0.517265C0.231621 15.756 0 15.5244 0 15.2388V14.244H29.9999V15.756Z" fill="#FF4B55"/>
<path d="M29.9999 20.2922H0V21.8042H29.9999V20.2922Z" fill="#FF4B55"/>
<path d="M29.4827 24.8276H0.517265C0.231621 24.8276 0 24.596 0 24.3103V23.3156H29.9999V24.3104C29.9999 24.596 29.7683 24.8276 29.4827 24.8276Z" fill="#FF4B55"/>
<path d="M29.9999 17.2682H0V18.7801H29.9999V17.2682Z" fill="#FF4B55"/>
<path d="M13.4482 5.17245H0.517265C0.231621 5.17245 0 5.40402 0 5.68966V15.2387C0 15.5243 0.231621 15.7559 0.517265 15.7559H13.4483C13.7339 15.7559 13.9656 15.5243 13.9656 15.2387V5.68966C13.9655 5.40402 13.7339 5.17245 13.4482 5.17245Z" fill="#41479B"/>
<path d="M1.45232 6.35976L1.56682 6.70312L1.92875 6.70588C1.97562 6.70629 1.99502 6.76605 1.95734 6.79388L1.66619 7.00892L1.77541 7.35398C1.78959 7.39863 1.73867 7.43566 1.70053 7.40835L1.40609 7.19794L1.11166 7.40841C1.07352 7.43566 1.02272 7.39869 1.03678 7.35404L1.146 7.00898L0.854845 6.79394C0.817169 6.76605 0.836564 6.70634 0.883439 6.70593L1.24537 6.70318L1.35986 6.35982C1.37463 6.31529 1.43744 6.31529 1.45232 6.35976Z" fill="#F5F5F5"/>
<path d="M1.45232 8.15577L1.56682 8.49913L1.92875 8.50188C1.97562 8.50229 1.99502 8.56206 1.95734 8.58989L1.66619 8.80493L1.77541 9.14999C1.78959 9.19464 1.73867 9.23167 1.70053 9.20436L1.40609 8.99395L1.11166 9.20442C1.07352 9.23167 1.02272 9.1947 1.03678 9.15005L1.146 8.80499L0.854845 8.58995C0.817169 8.56206 0.836564 8.50235 0.883439 8.50194L1.24537 8.49919L1.35986 8.15583C1.37463 8.11136 1.43744 8.11136 1.45232 8.15577Z" fill="#F5F5F5"/>
<path d="M1.45232 9.95191L1.56682 10.2953L1.92875 10.298C1.97562 10.2984 1.99502 10.3582 1.95734 10.386L1.66619 10.6011L1.77541 10.9461C1.78959 10.9908 1.73867 11.0278 1.70053 11.0005L1.40609 10.7901L1.11166 11.0006C1.07352 11.0278 1.02272 10.9908 1.03678 10.9462L1.146 10.6011L0.854845 10.3861C0.817169 10.3582 0.836564 10.2985 0.883439 10.2981L1.24537 10.2953L1.35986 9.95197C1.37463 9.9075 1.43744 9.9075 1.45232 9.95191Z" fill="#F5F5F5"/>
<path d="M1.45232 11.7481L1.56682 12.0914L1.92875 12.0942C1.97562 12.0946 1.99502 12.1544 1.95734 12.1822L1.66619 12.3972L1.77541 12.7423C1.78959 12.7869 1.73867 12.824 1.70053 12.7967L1.40609 12.5863L1.11166 12.7967C1.07352 12.824 1.02272 12.787 1.03678 12.7423L1.146 12.3973L0.854845 12.1822C0.817169 12.1544 0.836564 12.0946 0.883439 12.0942L1.24537 12.0915L1.35986 11.7481C1.37463 11.7036 1.43744 11.7036 1.45232 11.7481Z" fill="#F5F5F5"/>
<path d="M1.45232 13.5442L1.56682 13.8876L1.92875 13.8903C1.97562 13.8907 1.99502 13.9505 1.95734 13.9783L1.66619 14.1934L1.77541 14.5384C1.78959 14.5831 1.73867 14.6201 1.70053 14.5928L1.40609 14.3824L1.11166 14.5929C1.07352 14.6201 1.02272 14.5832 1.03678 14.5385L1.146 14.1934L0.854845 13.9784C0.817169 13.9505 0.836564 13.8908 0.883439 13.8904L1.24537 13.8876L1.35986 13.5443C1.37463 13.4997 1.43744 13.4997 1.45232 13.5442Z" fill="#F5F5F5"/>
<path d="M2.84686 7.24025L2.96135 7.58361L3.32328 7.58636C3.37016 7.58677 3.38955 7.64654 3.35187 7.67437L3.06072 7.88941L3.16994 8.23447C3.18412 8.27912 3.1332 8.31615 3.09506 8.28884L2.80063 8.07837L2.50619 8.28884C2.46805 8.31609 2.41725 8.27912 2.43131 8.23447L2.54053 7.88941L2.24938 7.67437C2.2117 7.64648 2.2311 7.58677 2.27797 7.58636L2.6399 7.58361L2.7544 7.24025C2.7691 7.19584 2.83203 7.19584 2.84686 7.24025Z" fill="#F5F5F5"/>
<path d="M2.84686 9.03644L2.96135 9.37979L3.32328 9.38255C3.37016 9.38296 3.38955 9.44272 3.35187 9.47056L3.06072 9.68559L3.16994 10.0307C3.18412 10.0753 3.1332 10.1123 3.09506 10.085L2.80063 9.87456L2.50619 10.085C2.46805 10.1123 2.41725 10.0754 2.43131 10.0307L2.54053 9.68559L2.24938 9.47056C2.2117 9.44267 2.2311 9.38296 2.27797 9.38255L2.6399 9.37979L2.7544 9.03644C2.7691 8.99196 2.83203 8.99196 2.84686 9.03644Z" fill="#F5F5F5"/>
<path d="M2.84686 10.8325L2.96135 11.1759L3.32328 11.1787C3.37016 11.1791 3.38955 11.2388 3.35187 11.2667L3.06072 11.4817L3.16994 11.8268C3.18412 11.8714 3.1332 11.9084 3.09506 11.8811L2.80063 11.6707L2.50619 11.8811C2.46805 11.9084 2.41725 11.8714 2.43131 11.8268L2.54053 11.4817L2.24938 11.2667C2.2117 11.2388 2.2311 11.1791 2.27797 11.1787L2.6399 11.1759L2.7544 10.8325C2.7691 10.7881 2.83203 10.7881 2.84686 10.8325Z" fill="#F5F5F5"/>
<path d="M2.84686 12.6287L2.96135 12.9721L3.32328 12.9748C3.37016 12.9752 3.38955 13.035 3.35187 13.0628L3.06072 13.2779L3.16994 13.6229C3.18412 13.6676 3.1332 13.7046 3.09506 13.6773L2.80063 13.4668L2.50619 13.6773C2.46805 13.7045 2.41725 13.6676 2.43131 13.6229L2.54053 13.2779L2.24938 13.0628C2.2117 13.0349 2.2311 12.9752 2.27797 12.9748L2.6399 12.9721L2.7544 12.6287C2.7691 12.5843 2.83203 12.5843 2.84686 12.6287Z" fill="#F5F5F5"/>
<path d="M4.24041 6.35965L4.3549 6.70301L4.71684 6.70576C4.76371 6.70617 4.78311 6.76594 4.74543 6.79377L4.45428 7.00881L4.5635 7.35386C4.57768 7.39851 4.52676 7.43554 4.48861 7.40824L4.19418 7.19777L3.89975 7.40824C3.8616 7.43548 3.8108 7.39851 3.82486 7.35386L3.93408 7.00881L3.64293 6.79377C3.60526 6.76588 3.62465 6.70617 3.67152 6.70576L4.03346 6.70301L4.14795 6.35965C4.16272 6.31518 4.22559 6.31518 4.24041 6.35965Z" fill="#F5F5F5"/>
<path d="M4.24041 8.15578L4.3549 8.49914L4.71684 8.50189C4.76371 8.5023 4.78311 8.56206 4.74543 8.5899L4.45428 8.80493L4.5635 9.14999C4.57768 9.19464 4.52676 9.23167 4.48861 9.20437L4.19418 8.9939L3.89975 9.20437C3.8616 9.23161 3.8108 9.19464 3.82486 9.14999L3.93408 8.80493L3.64293 8.5899C3.60526 8.56201 3.62465 8.5023 3.67152 8.50189L4.03346 8.49914L4.14795 8.15578C4.16272 8.11136 4.22559 8.11136 4.24041 8.15578Z" fill="#F5F5F5"/>
<path d="M4.24041 9.95192L4.3549 10.2953L4.71684 10.298C4.76371 10.2984 4.78311 10.3582 4.74543 10.386L4.45428 10.6011L4.5635 10.9461C4.57768 10.9908 4.52676 11.0278 4.48861 11.0005L4.19418 10.79L3.89975 11.0005C3.8616 11.0278 3.8108 10.9908 3.82486 10.9461L3.93408 10.6011L3.64293 10.386C3.60526 10.3582 3.62465 10.2984 3.67152 10.298L4.03346 10.2953L4.14795 9.95192C4.16272 9.90751 4.22559 9.90751 4.24041 9.95192Z" fill="#F5F5F5"/>
<path d="M4.24041 11.7481L4.3549 12.0914L4.71684 12.0942C4.76371 12.0946 4.78311 12.1544 4.74543 12.1822L4.45428 12.3972L4.5635 12.7423C4.57768 12.7869 4.52676 12.824 4.48861 12.7967L4.19418 12.5862L3.89975 12.7967C3.8616 12.8239 3.8108 12.7869 3.82486 12.7423L3.93408 12.3972L3.64293 12.1822C3.60526 12.1543 3.62465 12.0946 3.67152 12.0942L4.03346 12.0914L4.14795 11.7481C4.16272 11.7036 4.22559 11.7036 4.24041 11.7481Z" fill="#F5F5F5"/>
<path d="M4.24041 13.5442L4.3549 13.8876L4.71684 13.8903C4.76371 13.8908 4.78311 13.9505 4.74543 13.9784L4.45428 14.1934L4.5635 14.5385C4.57768 14.5831 4.52676 14.6201 4.48861 14.5928L4.19418 14.3824L3.89975 14.5928C3.8616 14.6201 3.8108 14.5831 3.82486 14.5385L3.93408 14.1934L3.64293 13.9784C3.60526 13.9505 3.62465 13.8908 3.67152 13.8903L4.03346 13.8876L4.14795 13.5442C4.16272 13.4997 4.22559 13.4997 4.24041 13.5442Z" fill="#F5F5F5"/>
<path d="M5.63494 7.24025L5.74943 7.58361L6.11137 7.58636C6.15824 7.58677 6.17764 7.64654 6.13996 7.67437L5.84881 7.88941L5.95803 8.23447C5.97221 8.27912 5.92129 8.31615 5.88314 8.28884L5.58871 8.07837L5.29428 8.28884C5.25613 8.31609 5.20533 8.27912 5.2194 8.23447L5.32861 7.88941L5.03746 7.67437C4.99979 7.64648 5.01918 7.58677 5.06606 7.58636L5.42799 7.58361L5.54248 7.24025C5.55719 7.19584 5.62012 7.19584 5.63494 7.24025Z" fill="#F5F5F5"/>
<path d="M5.63494 9.03644L5.74943 9.37979L6.11137 9.38255C6.15824 9.38296 6.17764 9.44272 6.13996 9.47056L5.84881 9.68559L5.95803 10.0307C5.97221 10.0753 5.92129 10.1123 5.88314 10.085L5.58871 9.87456L5.29428 10.085C5.25613 10.1123 5.20533 10.0754 5.2194 10.0307L5.32861 9.68559L5.03746 9.47056C4.99979 9.44267 5.01918 9.38296 5.06606 9.38255L5.42799 9.37979L5.54248 9.03644C5.55719 8.99196 5.62012 8.99196 5.63494 9.03644Z" fill="#F5F5F5"/>
<path d="M5.63494 10.8325L5.74943 11.1759L6.11137 11.1787C6.15824 11.1791 6.17764 11.2388 6.13996 11.2667L5.84881 11.4817L5.95803 11.8268C5.97221 11.8714 5.92129 11.9084 5.88314 11.8811L5.58871 11.6707L5.29428 11.8811C5.25613 11.9084 5.20533 11.8714 5.2194 11.8268L5.32861 11.4817L5.03746 11.2667C4.99979 11.2388 5.01918 11.1791 5.06606 11.1787L5.42799 11.1759L5.54248 10.8325C5.55719 10.7881 5.62012 10.7881 5.63494 10.8325Z" fill="#F5F5F5"/>
<path d="M5.63494 12.6287L5.74943 12.9721L6.11137 12.9748C6.15824 12.9752 6.17764 13.035 6.13996 13.0628L5.84881 13.2779L5.95803 13.6229C5.97221 13.6676 5.92129 13.7046 5.88314 13.6773L5.58871 13.4668L5.29428 13.6773C5.25613 13.7045 5.20533 13.6676 5.2194 13.6229L5.32861 13.2779L5.03746 13.0628C4.99979 13.0349 5.01918 12.9752 5.06606 12.9748L5.42799 12.9721L5.54248 12.6287C5.55719 12.5843 5.62012 12.5843 5.63494 12.6287Z" fill="#F5F5F5"/>
<path d="M7.02855 6.35965L7.14305 6.70301L7.50498 6.70576C7.55185 6.70617 7.57125 6.76594 7.53357 6.79377L7.24242 7.00881L7.35164 7.35386C7.36582 7.39851 7.3149 7.43554 7.27676 7.40824L6.98227 7.19777L6.68783 7.40824C6.64969 7.43548 6.59889 7.39851 6.61295 7.35386L6.72217 7.00881L6.43102 6.79377C6.39334 6.76588 6.41274 6.70617 6.45961 6.70576L6.82154 6.70301L6.93604 6.35965C6.95086 6.31518 7.01373 6.31518 7.02855 6.35965Z" fill="#F5F5F5"/>
<path d="M7.02855 8.15578L7.14305 8.49914L7.50498 8.50189C7.55185 8.5023 7.57125 8.56206 7.53357 8.5899L7.24242 8.80493L7.35164 9.14999C7.36582 9.19464 7.3149 9.23167 7.27676 9.20437L6.98227 8.9939L6.68783 9.20437C6.64969 9.23161 6.59889 9.19464 6.61295 9.14999L6.72217 8.80493L6.43102 8.5899C6.39334 8.56201 6.41274 8.5023 6.45961 8.50189L6.82154 8.49914L6.93604 8.15578C6.95086 8.11136 7.01373 8.11136 7.02855 8.15578Z" fill="#F5F5F5"/>
<path d="M7.02855 9.95192L7.14305 10.2953L7.50498 10.298C7.55185 10.2984 7.57125 10.3582 7.53357 10.386L7.24242 10.6011L7.35164 10.9461C7.36582 10.9908 7.3149 11.0278 7.27676 11.0005L6.98227 10.79L6.68783 11.0005C6.64969 11.0278 6.59889 10.9908 6.61295 10.9461L6.72217 10.6011L6.43102 10.386C6.39334 10.3582 6.41274 10.2984 6.45961 10.298L6.82154 10.2953L6.93604 9.95192C6.95086 9.90751 7.01373 9.90751 7.02855 9.95192Z" fill="#F5F5F5"/>
<path d="M7.02855 11.7481L7.14305 12.0914L7.50498 12.0942C7.55185 12.0946 7.57125 12.1544 7.53357 12.1822L7.24242 12.3972L7.35164 12.7423C7.36582 12.7869 7.3149 12.824 7.27676 12.7967L6.98227 12.5862L6.68783 12.7967C6.64969 12.8239 6.59889 12.7869 6.61295 12.7423L6.72217 12.3972L6.43102 12.1822C6.39334 12.1543 6.41274 12.0946 6.45961 12.0942L6.82154 12.0914L6.93604 11.7481C6.95086 11.7036 7.01373 11.7036 7.02855 11.7481Z" fill="#F5F5F5"/>
<path d="M7.02855 13.5442L7.14305 13.8876L7.50498 13.8903C7.55185 13.8908 7.57125 13.9505 7.53357 13.9784L7.24242 14.1934L7.35164 14.5385C7.36582 14.5831 7.3149 14.6201 7.27676 14.5928L6.98227 14.3824L6.68783 14.5928C6.64969 14.6201 6.59889 14.5831 6.61295 14.5385L6.72217 14.1934L6.43102 13.9784C6.39334 13.9505 6.41274 13.8908 6.45961 13.8903L6.82154 13.8876L6.93604 13.5442C6.95086 13.4997 7.01373 13.4997 7.02855 13.5442Z" fill="#F5F5F5"/>
<path d="M8.42303 7.24025L8.53752 7.58361L8.89946 7.58636C8.94633 7.58677 8.96572 7.64654 8.92805 7.67437L8.6369 7.88941L8.74612 8.23447C8.76029 8.27912 8.70938 8.31615 8.67123 8.28884L8.3768 8.07837L8.08236 8.28884C8.04422 8.31609 7.99342 8.27912 8.00748 8.23447L8.1167 7.88941L7.82555 7.67437C7.78787 7.64648 7.80727 7.58677 7.85414 7.58636L8.21608 7.58361L8.33057 7.24025C8.34539 7.19584 8.40821 7.19584 8.42303 7.24025Z" fill="#F5F5F5"/>
<path d="M8.42303 9.03644L8.53752 9.37979L8.89946 9.38255C8.94633 9.38296 8.96572 9.44272 8.92805 9.47056L8.6369 9.68559L8.74612 10.0307C8.76029 10.0753 8.70938 10.1123 8.67123 10.085L8.3768 9.87456L8.08236 10.085C8.04422 10.1123 7.99342 10.0754 8.00748 10.0307L8.1167 9.68559L7.82555 9.47056C7.78787 9.44267 7.80727 9.38296 7.85414 9.38255L8.21608 9.37979L8.33057 9.03644C8.34539 8.99196 8.40821 8.99196 8.42303 9.03644Z" fill="#F5F5F5"/>
<path d="M8.42303 10.8325L8.53752 11.1759L8.89946 11.1787C8.94633 11.1791 8.96572 11.2388 8.92805 11.2667L8.6369 11.4817L8.74612 11.8268C8.76029 11.8714 8.70938 11.9084 8.67123 11.8811L8.3768 11.6707L8.08236 11.8811C8.04422 11.9084 7.99342 11.8714 8.00748 11.8268L8.1167 11.4817L7.82555 11.2667C7.78787 11.2388 7.80727 11.1791 7.85414 11.1787L8.21608 11.1759L8.33057 10.8325C8.34539 10.7881 8.40821 10.7881 8.42303 10.8325Z" fill="#F5F5F5"/>
<path d="M8.42303 12.6287L8.53752 12.9721L8.89946 12.9748C8.94633 12.9752 8.96572 13.035 8.92805 13.0628L8.6369 13.2779L8.74612 13.6229C8.76029 13.6676 8.70938 13.7046 8.67123 13.6773L8.3768 13.4668L8.08236 13.6773C8.04422 13.7045 7.99342 13.6676 8.00748 13.6229L8.1167 13.2779L7.82555 13.0628C7.78787 13.0349 7.80727 12.9752 7.85414 12.9748L8.21608 12.9721L8.33057 12.6287C8.34539 12.5843 8.40821 12.5843 8.42303 12.6287Z" fill="#F5F5F5"/>
<path d="M9.81756 6.35965L9.93205 6.70301L10.294 6.70576C10.3409 6.70617 10.3603 6.76594 10.3226 6.79377L10.0314 7.00881L10.1406 7.35386C10.1548 7.39851 10.1039 7.43554 10.0658 7.40824L9.77133 7.19777L9.4769 7.40824C9.43875 7.43548 9.38795 7.39851 9.40201 7.35386L9.51123 7.00881L9.22008 6.79377C9.1824 6.76588 9.2018 6.70617 9.24867 6.70576L9.61061 6.70301L9.7251 6.35965C9.73981 6.31518 9.80274 6.31518 9.81756 6.35965Z" fill="#F5F5F5"/>
<path d="M9.81756 8.15578L9.93205 8.49914L10.294 8.50189C10.3409 8.5023 10.3603 8.56206 10.3226 8.5899L10.0314 8.80493L10.1406 9.14999C10.1548 9.19464 10.1039 9.23167 10.0658 9.20437L9.77133 8.9939L9.4769 9.20437C9.43875 9.23161 9.38795 9.19464 9.40201 9.14999L9.51123 8.80493L9.22008 8.5899C9.1824 8.56201 9.2018 8.5023 9.24867 8.50189L9.61061 8.49914L9.7251 8.15578C9.73981 8.11136 9.80274 8.11136 9.81756 8.15578Z" fill="#F5F5F5"/>
<path d="M9.81756 9.95192L9.93205 10.2953L10.294 10.298C10.3409 10.2984 10.3603 10.3582 10.3226 10.386L10.0314 10.6011L10.1406 10.9461C10.1548 10.9908 10.1039 11.0278 10.0658 11.0005L9.77133 10.79L9.4769 11.0005C9.43875 11.0278 9.38795 10.9908 9.40201 10.9461L9.51123 10.6011L9.22008 10.386C9.1824 10.3582 9.2018 10.2984 9.24867 10.298L9.61061 10.2953L9.7251 9.95192C9.73981 9.90751 9.80274 9.90751 9.81756 9.95192Z" fill="#F5F5F5"/>
<path d="M9.81756 11.7481L9.93205 12.0914L10.294 12.0942C10.3409 12.0946 10.3603 12.1544 10.3226 12.1822L10.0314 12.3972L10.1406 12.7423C10.1548 12.7869 10.1039 12.824 10.0658 12.7967L9.77133 12.5862L9.4769 12.7967C9.43875 12.8239 9.38795 12.7869 9.40201 12.7423L9.51123 12.3972L9.22008 12.1822C9.1824 12.1543 9.2018 12.0946 9.24867 12.0942L9.61061 12.0914L9.7251 11.7481C9.73981 11.7036 9.80274 11.7036 9.81756 11.7481Z" fill="#F5F5F5"/>
<path d="M9.81756 13.5442L9.93205 13.8876L10.294 13.8903C10.3409 13.8908 10.3603 13.9505 10.3226 13.9784L10.0314 14.1934L10.1406 14.5385C10.1548 14.5831 10.1039 14.6201 10.0658 14.5928L9.77133 14.3824L9.4769 14.5928C9.43875 14.6201 9.38795 14.5831 9.40201 14.5385L9.51123 14.1934L9.22008 13.9784C9.1824 13.9505 9.2018 13.8908 9.24867 13.8903L9.61061 13.8876L9.7251 13.5442C9.73981 13.4997 9.80274 13.4997 9.81756 13.5442Z" fill="#F5F5F5"/>
<path d="M11.2111 7.24025L11.3256 7.58361L11.6875 7.58636C11.7344 7.58677 11.7538 7.64654 11.7161 7.67437L11.425 7.88941L11.5342 8.23447C11.5484 8.27912 11.4975 8.31615 11.4593 8.28884L11.1649 8.07837L10.8705 8.28884C10.8323 8.31609 10.7815 8.27912 10.7956 8.23447L10.9048 7.88941L10.6136 7.67437C10.576 7.64648 10.5954 7.58677 10.6422 7.58636L11.0042 7.58361L11.1187 7.24025C11.1334 7.19584 11.1963 7.19584 11.2111 7.24025Z" fill="#F5F5F5"/>
<path d="M11.2111 9.03644L11.3256 9.37979L11.6875 9.38255C11.7344 9.38296 11.7538 9.44272 11.7161 9.47056L11.425 9.68559L11.5342 10.0307C11.5484 10.0753 11.4975 10.1123 11.4593 10.085L11.1649 9.87456L10.8705 10.085C10.8323 10.1123 10.7815 10.0754 10.7956 10.0307L10.9048 9.68559L10.6136 9.47056C10.576 9.44267 10.5954 9.38296 10.6422 9.38255L11.0042 9.37979L11.1187 9.03644C11.1334 8.99196 11.1963 8.99196 11.2111 9.03644Z" fill="#F5F5F5"/>
<path d="M11.2111 10.8325L11.3256 11.1759L11.6875 11.1787C11.7344 11.1791 11.7538 11.2388 11.7161 11.2667L11.425 11.4817L11.5342 11.8268C11.5484 11.8714 11.4975 11.9084 11.4593 11.8811L11.1649 11.6707L10.8705 11.8811C10.8323 11.9084 10.7815 11.8714 10.7956 11.8268L10.9048 11.4817L10.6136 11.2667C10.576 11.2388 10.5954 11.1791 10.6422 11.1787L11.0042 11.1759L11.1187 10.8325C11.1334 10.7881 11.1963 10.7881 11.2111 10.8325Z" fill="#F5F5F5"/>
<path d="M11.2111 12.6287L11.3256 12.9721L11.6875 12.9748C11.7344 12.9752 11.7538 13.035 11.7161 13.0628L11.425 13.2779L11.5342 13.6229C11.5484 13.6676 11.4975 13.7046 11.4593 13.6773L11.1649 13.4668L10.8705 13.6773C10.8323 13.7045 10.7815 13.6676 10.7956 13.6229L10.9048 13.2779L10.6136 13.0628C10.576 13.0349 10.5954 12.9752 10.6422 12.9748L11.0042 12.9721L11.1187 12.6287C11.1334 12.5843 11.1963 12.5843 11.2111 12.6287Z" fill="#F5F5F5"/>
<path d="M12.6056 6.35965L12.7201 6.70301L13.0821 6.70576C13.1289 6.70617 13.1483 6.76594 13.1107 6.79377L12.8195 7.00881L12.9287 7.35386C12.9429 7.39851 12.892 7.43554 12.8538 7.40824L12.5594 7.19777L12.265 7.40824C12.2268 7.43548 12.176 7.39851 12.1901 7.35386L12.2993 7.00881L12.0082 6.79377C11.9705 6.76588 11.9899 6.70617 12.0368 6.70576L12.3987 6.70301L12.5132 6.35965C12.5279 6.31518 12.5908 6.31518 12.6056 6.35965Z" fill="#F5F5F5"/>
<path d="M12.6056 8.15578L12.7201 8.49914L13.0821 8.50189C13.1289 8.5023 13.1483 8.56206 13.1107 8.5899L12.8195 8.80493L12.9287 9.14999C12.9429 9.19464 12.892 9.23167 12.8538 9.20437L12.5594 8.9939L12.265 9.20437C12.2268 9.23161 12.176 9.19464 12.1901 9.14999L12.2993 8.80493L12.0082 8.5899C11.9705 8.56201 11.9899 8.5023 12.0368 8.50189L12.3987 8.49914L12.5132 8.15578C12.5279 8.11136 12.5908 8.11136 12.6056 8.15578Z" fill="#F5F5F5"/>
<path d="M12.6056 9.95192L12.7201 10.2953L13.0821 10.298C13.1289 10.2984 13.1483 10.3582 13.1107 10.386L12.8195 10.6011L12.9287 10.9461C12.9429 10.9908 12.892 11.0278 12.8538 11.0005L12.5594 10.79L12.265 11.0005C12.2268 11.0278 12.176 10.9908 12.1901 10.9461L12.2993 10.6011L12.0082 10.386C11.9705 10.3582 11.9899 10.2984 12.0368 10.298L12.3987 10.2953L12.5132 9.95192C12.5279 9.90751 12.5908 9.90751 12.6056 9.95192Z" fill="#F5F5F5"/>
<path d="M12.6056 11.7481L12.7201 12.0914L13.0821 12.0942C13.1289 12.0946 13.1483 12.1544 13.1107 12.1822L12.8195 12.3972L12.9287 12.7423C12.9429 12.7869 12.892 12.824 12.8538 12.7967L12.5594 12.5862L12.265 12.7967C12.2268 12.8239 12.176 12.7869 12.1901 12.7423L12.2993 12.3972L12.0082 12.1822C11.9705 12.1543 11.9899 12.0946 12.0368 12.0942L12.3987 12.0914L12.5132 11.7481C12.5279 11.7036 12.5908 11.7036 12.6056 11.7481Z" fill="#F5F5F5"/>
<path d="M12.6056 13.5442L12.7201 13.8876L13.0821 13.8903C13.1289 13.8908 13.1483 13.9505 13.1107 13.9784L12.8195 14.1934L12.9287 14.5385C12.9429 14.5831 12.892 14.6201 12.8538 14.5928L12.5594 14.3824L12.265 14.5928C12.2268 14.6201 12.176 14.5831 12.1901 14.5385L12.2993 14.1934L12.0082 13.9784C11.9705 13.9505 11.9899 13.8908 12.0368 13.8903L12.3987 13.8876L12.5132 13.5442C12.5279 13.4997 12.5908 13.4997 12.6056 13.5442Z" fill="#F5F5F5"/>
</svg>
