<svg width="12" height="12" viewBox="0 0 12 12" fill="none" xmlns="http://www.w3.org/2000/svg">
<path d="M0.14632 11.8537C0.240036 11.9474 0.367126 12 0.499642 12C0.632157 12 0.759247 11.9474 0.852964 11.8537L5.99688 6.70977L11.1408 11.8537C11.235 11.9447 11.3613 11.9951 11.4923 11.9939C11.6233 11.9928 11.7487 11.9403 11.8413 11.8476C11.934 11.7549 11.9866 11.6296 11.9877 11.4986C11.9888 11.3675 11.9385 11.2413 11.8474 11.147L6.70352 6.00312L11.8474 0.859212C11.8952 0.813111 11.9332 0.757967 11.9594 0.696996C11.9856 0.636024 11.9994 0.570447 12 0.504091C12.0006 0.437735 11.9879 0.371928 11.9628 0.310511C11.9377 0.249094 11.9005 0.193296 11.8536 0.146373C11.8067 0.0994502 11.7509 0.0623424 11.6895 0.0372146C11.6281 0.0120868 11.5623 -0.000557749 11.4959 1.88689e-05C11.4296 0.000595487 11.364 0.0143817 11.303 0.040573C11.242 0.0667643 11.1869 0.104836 11.1408 0.152567L5.99688 5.29648L0.852964 0.152567C0.75871 0.0615341 0.632473 0.0111623 0.50144 0.0123009C0.370408 0.0134395 0.245065 0.0659976 0.152407 0.158655C0.0597498 0.251312 0.00719178 0.376656 0.00605314 0.507688C0.00491451 0.63872 0.0552863 0.764958 0.14632 0.859212L5.29023 6.00312L0.14632 11.147C0.0526312 11.2408 0 11.3678 0 11.5004C0 11.6329 0.0526312 11.76 0.14632 11.8537Z" fill="white"/>
</svg>
